<?xml version="1.0" encoding="utf-8"?>
<!-- Generator: Adobe Illustrator 16.0.0, SVG Export Plug-In . SVG Version: 6.00 Build 0)  -->
<!DOCTYPE svg PUBLIC "-//W3C//DTD SVG 1.1//EN" "http://www.w3.org/Graphics/SVG/1.1/DTD/svg11.dtd">
<svg version="1.1" id="Layer_1" xmlns="http://www.w3.org/2000/svg" xmlns:xlink="http://www.w3.org/1999/xlink" x="0px" y="0px"
	 width="24px" height="24px" viewBox="0 0 24 24" enable-background="new 0 0 24 24" xml:space="preserve">
<g>
	<path d="M15.299,12.649c0.313,0.108,0.646,0.179,0.998,0.179c1.701,0,3.08-1.379,3.08-3.082c0-1.03-0.51-1.935-1.286-2.495
		c-0.044-0.423-0.129-0.83-0.263-1.22c0.092-0.271,0.152-0.556,0.152-0.857c0-1.489-1.207-2.696-2.695-2.696
		c-0.198,0-0.391,0.025-0.578,0.066c0.093-0.22,0.146-0.461,0.146-0.715c0-1.011-0.819-1.83-1.829-1.83
		c-0.75,0-1.393,0.452-1.676,1.097c-0.384-0.434-0.938-0.712-1.563-0.712c-1.156,0-2.094,0.938-2.094,2.094
		c0,0.241,0.05,0.47,0.124,0.686C7.773,3.163,7.734,3.152,7.691,3.152c-1.289,0-2.335,1.045-2.335,2.334
		c0,0.57,0.212,1.085,0.552,1.49C5.132,7.578,4.623,8.509,4.623,9.566c0,1.628,1.187,2.969,2.74,3.23
		c0.254,1.105,1.239,1.932,2.422,1.932c0.452,0,0.868-0.133,1.232-0.345V24h2v-6.681l3.472-1.84l-0.834-0.583l-2.638,1.586v-3.131
		C13.842,13.283,14.612,13.035,15.299,12.649z"/>
	<path d="M22.024,14.335c0.152,0.052,0.313,0.087,0.483,0.087c0.824,0,1.492-0.668,1.492-1.493c0-0.499-0.247-0.938-0.623-1.208
		c-0.021-0.205-0.063-0.402-0.127-0.591c0.044-0.131,0.073-0.27,0.073-0.416c0-0.721-0.584-1.306-1.306-1.306
		c-0.096,0-0.188,0.012-0.279,0.032c0.045-0.106,0.07-0.224,0.07-0.346c0-0.49-0.397-0.886-0.886-0.886
		c-0.363,0-0.675,0.219-0.813,0.531c-0.031-0.036-0.078-0.055-0.114-0.085c0.106,0.354,0.181,0.717,0.181,1.093
		c0,1.881-1.355,3.475-3.127,3.814c0.227,0.434,0.631,0.761,1.131,0.845c0.123,0.536,0.601,0.936,1.173,0.936
		c0.22,0,0.421-0.064,0.598-0.167v4.658h0.969v-3.236l1.682-0.891l-0.404-0.283l-1.277,0.769v-1.517
		C21.319,14.642,21.692,14.521,22.024,14.335z"/>
	<path d="M3.823,9.566c0-0.471,0.089-0.927,0.243-1.358c-0.362,0.001-0.672,0.22-0.81,0.531C3.071,8.529,2.803,8.395,2.5,8.395
		c-0.56,0-1.014,0.454-1.014,1.014c0,0.117,0.024,0.228,0.06,0.332c-0.02-0.001-0.039-0.006-0.06-0.006
		c-0.624,0-1.131,0.506-1.131,1.131c0,0.276,0.103,0.525,0.267,0.722C0.246,11.879,0,12.33,0,12.842
		c0,0.789,0.575,1.438,1.327,1.564c0.123,0.536,0.601,0.936,1.173,0.936c0.22,0,0.421-0.064,0.598-0.167v4.658h0.969v-3.236
		l1.682-0.891l-0.404-0.283l-1.277,0.769v-1.517c0.399-0.033,0.772-0.154,1.104-0.34c0.152,0.052,0.313,0.087,0.483,0.087
		c0.513,0,0.965-0.259,1.233-0.653c-0.052-0.098-0.107-0.193-0.149-0.296C5.022,12.964,3.823,11.394,3.823,9.566z"/>
</g>
</svg>
