<?xml version="1.0" encoding="UTF-8" standalone="no"?>
<!-- Created with Inkscape (http://www.inkscape.org/) -->

<svg
   xmlns:dc="http://purl.org/dc/elements/1.1/"
   xmlns:cc="http://creativecommons.org/ns#"
   xmlns:rdf="http://www.w3.org/1999/02/22-rdf-syntax-ns#"
   xmlns:svg="http://www.w3.org/2000/svg"
   xmlns="http://www.w3.org/2000/svg"
   xmlns:sodipodi="http://sodipodi.sourceforge.net/DTD/sodipodi-0.dtd"
   xmlns:inkscape="http://www.inkscape.org/namespaces/inkscape"
   width="210mm"
   height="297mm"
   viewBox="0 0 744.09448819 1052.3622047"
   id="svg2"
   version="1.1"
   inkscape:version="0.91 r13725"
   sodipodi:docname="soil.svg">
  <defs
     id="defs4" />
  <sodipodi:namedview
     id="base"
     pagecolor="#ffffff"
     bordercolor="#666666"
     borderopacity="1.0"
     inkscape:pageopacity="0.0"
     inkscape:pageshadow="2"
     inkscape:zoom="0.87256945"
     inkscape:cx="311.27597"
     inkscape:cy="350.50421"
     inkscape:document-units="px"
     inkscape:current-layer="layer1"
     showgrid="false"
     inkscape:window-width="1920"
     inkscape:window-height="1033"
     inkscape:window-x="-4"
     inkscape:window-y="-4"
     inkscape:window-maximized="1" />
  <metadata
     id="metadata7">
    <rdf:RDF>
      <cc:Work
         rdf:about="">
        <dc:format>image/svg+xml</dc:format>
        <dc:type
           rdf:resource="http://purl.org/dc/dcmitype/StillImage" />
        <dc:title></dc:title>
      </cc:Work>
    </rdf:RDF>
  </metadata>
  <g
     inkscape:label="Vrstva 1"
     inkscape:groupmode="layer"
     id="layer1">
    <path
       style="fill:none;fill-rule:evenodd;stroke:#000000;stroke-width:1px;stroke-linecap:butt;stroke-linejoin:miter;stroke-opacity:1"
       d="m 107.57062,823.93316 c 30.00875,-32.17322 11.34812,-72.01289 135.56943,-80.27423 14.7391,-20.73887 28.87974,-41.65375 79.41656,-51.86388 -14.70012,-103.49651 12.18196,-114.91812 25.12157,-157.21237 l 66.45059,17.01783 57.20082,-229.43388 c 9.19277,-13.31923 30.8452,-11.30547 34.32218,6.5813 l -56.67696,230.95631 62.44789,19.02341 c 1.99458,33.71163 3.71442,64.90499 -48.67154,146.2927 29.78889,15.93115 34.44715,45.21294 40.51865,73.74395 53.35798,-75.73642 104.15094,-41.98575 116.30082,25.16886 z"
       id="path4147-2-9"
       inkscape:connector-curvature="0"
       sodipodi:nodetypes="ccccccccccccc" />
    <path
       style="opacity:0;fill:#c87137;fill-opacity:1;stroke:#000000;stroke-width:1.14604056;stroke-miterlimit:4;stroke-dasharray:none;stroke-opacity:1"
       d="m 115.73839,814.9149 c 2.77078,-4.25468 7.94686,-12.99652 11.50241,-19.4263 7.49073,-13.54614 15.65386,-23.013 25.14302,-29.15862 16.27495,-10.54042 43.91423,-17.56582 82.99211,-21.09507 l 8.33393,-0.75268 6.24946,-8.30358 c 7.87382,-10.46186 21.08562,-22.94818 29.66097,-28.03224 8.505,-5.04235 24.09485,-10.96048 35.42634,-13.44833 8.61063,-1.89047 8.90713,-2.06481 8.34511,-4.90667 -3.58208,-18.11314 -4.78289,-65.9432 -2.03049,-80.87731 2.50438,-13.58833 6.99855,-26.72913 15.67792,-45.84162 4.57988,-10.08516 8.96332,-20.31633 9.741,-22.73596 1.00987,-3.14204 1.95212,-4.26836 3.29709,-3.94111 1.03574,0.25201 15.91095,4.01925 33.05603,8.37167 17.14509,4.35241 31.37857,7.67307 31.62997,7.37923 0.25141,-0.29383 13.25737,-51.84821 28.90214,-114.56528 15.64477,-62.71707 29.00221,-114.97643 29.6832,-116.13191 1.93458,-3.28256 9.24193,-6.49443 14.77551,-6.49443 6.17267,0 11.79261,3.51688 14.65084,9.16832 l 2.02865,4.01115 -28.04486,114.03103 c -15.42468,62.71708 -28.15423,115.00354 -28.28789,116.19215 -0.2105,1.87186 3.89867,3.42335 30.70007,11.59141 l 30.94309,9.4303 0.31691,16.73044 c 0.25065,13.23289 -0.16816,19.1107 -2.0034,28.11633 -4.88948,23.99307 -16.25297,50.17475 -36.12331,83.22867 -6.05637,10.07463 -10.51745,18.48224 -9.91349,18.68356 0.60395,0.20132 3.45607,1.9279 6.33805,3.83683 13.83244,9.16224 23.61183,26.22518 29.43421,51.35648 4.83373,20.86396 4.22471,19.50582 7.16437,15.97682 1.37202,-1.64708 5.58889,-6.71048 9.37083,-11.252 12.58734,-15.11546 28.35908,-25.81422 42.33005,-28.71457 11.20183,-2.3255 24.12664,1.70116 34.67472,10.80272 9.42337,8.13111 19.71682,26.86279 23.93265,43.55185 0.96468,3.81884 2.0194,7.84585 2.34383,8.94892 0.56053,1.90581 -12.04155,2.00557 -253.34447,2.00557 l -253.93436,0 5.03779,-7.73577 z"
       id="path4217"
       inkscape:connector-curvature="0" />
    <path
       style="opacity:0;fill:#c87137;fill-opacity:1;stroke:#000000;stroke-width:1.14604056;stroke-miterlimit:4;stroke-dasharray:none;stroke-opacity:1"
       d="m 115.73839,814.9149 c 2.77078,-4.25468 7.94686,-12.99652 11.50241,-19.4263 7.49073,-13.54614 15.65386,-23.013 25.14302,-29.15862 16.27495,-10.54042 43.91423,-17.56582 82.99211,-21.09507 l 8.33393,-0.75268 6.24946,-8.30358 c 7.87382,-10.46186 21.08562,-22.94818 29.66097,-28.03224 8.505,-5.04235 24.09485,-10.96048 35.42634,-13.44833 8.61063,-1.89047 8.90713,-2.06481 8.34511,-4.90667 -3.58208,-18.11314 -4.78289,-65.9432 -2.03049,-80.87731 2.50438,-13.58833 6.99855,-26.72913 15.67792,-45.84162 4.57988,-10.08516 8.96332,-20.31633 9.741,-22.73596 1.00987,-3.14204 1.95212,-4.26836 3.29709,-3.94111 1.03574,0.25201 15.91095,4.01925 33.05603,8.37167 17.14509,4.35241 31.37857,7.67307 31.62997,7.37923 0.25141,-0.29383 13.25737,-51.84821 28.90214,-114.56528 15.64477,-62.71707 29.00221,-114.97643 29.6832,-116.13191 1.93458,-3.28256 9.24193,-6.49443 14.77551,-6.49443 6.17267,0 11.79261,3.51688 14.65084,9.16832 l 2.02865,4.01115 -28.04486,114.03103 c -15.42468,62.71708 -28.15423,115.00354 -28.28789,116.19215 -0.2105,1.87186 3.89867,3.42335 30.70007,11.59141 l 30.94309,9.4303 0.31691,16.73044 c 0.25065,13.23289 -0.16816,19.1107 -2.0034,28.11633 -4.88948,23.99307 -16.25297,50.17475 -36.12331,83.22867 -6.05637,10.07463 -10.51745,18.48224 -9.91349,18.68356 0.60395,0.20132 3.45607,1.9279 6.33805,3.83683 13.83244,9.16224 23.61183,26.22518 29.43421,51.35648 4.83373,20.86396 4.22471,19.50582 7.16437,15.97682 1.37202,-1.64708 5.58889,-6.71048 9.37083,-11.252 12.58734,-15.11546 28.35908,-25.81422 42.33005,-28.71457 11.20183,-2.3255 24.12664,1.70116 34.67472,10.80272 9.42337,8.13111 19.71682,26.86279 23.93265,43.55185 0.96468,3.81884 2.0194,7.84585 2.34383,8.94892 0.56053,1.90581 -12.04155,2.00557 -253.34447,2.00557 l -253.93436,0 5.03779,-7.73577 z"
       id="path4219"
       inkscape:connector-curvature="0" />
    <path
       style="opacity:0;fill:#c87137;fill-opacity:1;stroke:#000000;stroke-width:1.14604056;stroke-miterlimit:4;stroke-dasharray:none;stroke-opacity:1"
       d="m 115.73839,814.9149 c 2.77078,-4.25468 7.94686,-12.99652 11.50241,-19.4263 7.49073,-13.54614 15.65386,-23.013 25.14302,-29.15862 16.27495,-10.54042 43.91423,-17.56582 82.99211,-21.09507 l 8.33393,-0.75268 6.24946,-8.30358 c 7.87382,-10.46186 21.08562,-22.94818 29.66097,-28.03224 8.505,-5.04235 24.09485,-10.96048 35.42634,-13.44833 8.61063,-1.89047 8.90713,-2.06481 8.34511,-4.90667 -3.58208,-18.11314 -4.78289,-65.9432 -2.03049,-80.87731 2.50438,-13.58833 6.99855,-26.72913 15.67792,-45.84162 4.57988,-10.08516 8.96332,-20.31633 9.741,-22.73596 1.00987,-3.14204 1.95212,-4.26836 3.29709,-3.94111 1.03574,0.25201 15.91095,4.01925 33.05603,8.37167 17.14509,4.35241 31.37857,7.67307 31.62997,7.37923 0.25141,-0.29383 13.25737,-51.84821 28.90214,-114.56528 15.64477,-62.71707 29.00221,-114.97643 29.6832,-116.13191 1.93458,-3.28256 9.24193,-6.49443 14.77551,-6.49443 6.17267,0 11.79261,3.51688 14.65084,9.16832 l 2.02865,4.01115 -28.04486,114.03103 c -15.42468,62.71708 -28.15423,115.00354 -28.28789,116.19215 -0.2105,1.87186 3.89867,3.42335 30.70007,11.59141 l 30.94309,9.4303 0.31691,16.73044 c 0.25065,13.23289 -0.16816,19.1107 -2.0034,28.11633 -4.88948,23.99307 -16.25297,50.17475 -36.12331,83.22867 -6.05637,10.07463 -10.51745,18.48224 -9.91349,18.68356 0.60395,0.20132 3.45607,1.9279 6.33805,3.83683 13.83244,9.16224 23.61183,26.22518 29.43421,51.35648 4.83373,20.86396 4.22471,19.50582 7.16437,15.97682 1.37202,-1.64708 5.58889,-6.71048 9.37083,-11.252 12.58734,-15.11546 28.35908,-25.81422 42.33005,-28.71457 11.20183,-2.3255 24.12664,1.70116 34.67472,10.80272 9.42337,8.13111 19.71682,26.86279 23.93265,43.55185 0.96468,3.81884 2.0194,7.84585 2.34383,8.94892 0.56053,1.90581 -12.04155,2.00557 -253.34447,2.00557 l -253.93436,0 5.03779,-7.73577 z"
       id="path4221"
       inkscape:connector-curvature="0" />
    <path
       style="opacity:0;fill:#c87137;fill-opacity:1;stroke:#000000;stroke-width:1.14604056;stroke-miterlimit:4;stroke-dasharray:none;stroke-opacity:1"
       d="m 115.73839,814.9149 c 2.77078,-4.25468 7.94686,-12.99652 11.50241,-19.4263 7.49073,-13.54614 15.65386,-23.013 25.14302,-29.15862 16.27495,-10.54042 43.91423,-17.56582 82.99211,-21.09507 l 8.33393,-0.75268 6.24946,-8.30358 c 7.87382,-10.46186 21.08562,-22.94818 29.66097,-28.03224 8.505,-5.04235 24.09485,-10.96048 35.42634,-13.44833 8.61063,-1.89047 8.90713,-2.06481 8.34511,-4.90667 -3.58208,-18.11314 -4.78289,-65.9432 -2.03049,-80.87731 2.50438,-13.58833 6.99855,-26.72913 15.67792,-45.84162 4.57988,-10.08516 8.96332,-20.31633 9.741,-22.73596 1.00987,-3.14204 1.95212,-4.26836 3.29709,-3.94111 1.03574,0.25201 15.91095,4.01925 33.05603,8.37167 17.14509,4.35241 31.37857,7.67307 31.62997,7.37923 0.25141,-0.29383 13.25737,-51.84821 28.90214,-114.56528 15.64477,-62.71707 29.00221,-114.97643 29.6832,-116.13191 1.93458,-3.28256 9.24193,-6.49443 14.77551,-6.49443 6.17267,0 11.79261,3.51688 14.65084,9.16832 l 2.02865,4.01115 -28.04486,114.03103 c -15.42468,62.71708 -28.15423,115.00354 -28.28789,116.19215 -0.2105,1.87186 3.89867,3.42335 30.70007,11.59141 l 30.94309,9.4303 0.31691,16.73044 c 0.25065,13.23289 -0.16816,19.1107 -2.0034,28.11633 -4.88948,23.99307 -16.25297,50.17475 -36.12331,83.22867 -6.05637,10.07463 -10.51745,18.48224 -9.91349,18.68356 0.60395,0.20132 3.45607,1.9279 6.33805,3.83683 13.83244,9.16224 23.61183,26.22518 29.43421,51.35648 4.83373,20.86396 4.22471,19.50582 7.16437,15.97682 1.37202,-1.64708 5.58889,-6.71048 9.37083,-11.252 12.58734,-15.11546 28.35908,-25.81422 42.33005,-28.71457 11.20183,-2.3255 24.12664,1.70116 34.67472,10.80272 9.42337,8.13111 19.71682,26.86279 23.93265,43.55185 0.96468,3.81884 2.0194,7.84585 2.34383,8.94892 0.56053,1.90581 -12.04155,2.00557 -253.34447,2.00557 l -253.93436,0 5.03779,-7.73577 z"
       id="path4223"
       inkscape:connector-curvature="0" />
    <path
       style="opacity:0;fill:#c87137;fill-opacity:1;stroke:#000000;stroke-width:1.14604056;stroke-miterlimit:4;stroke-dasharray:none;stroke-opacity:1"
       d="m 115.73839,814.9149 c 2.77078,-4.25468 7.94686,-12.99652 11.50241,-19.4263 7.49073,-13.54614 15.65386,-23.013 25.14302,-29.15862 16.27495,-10.54042 43.91423,-17.56582 82.99211,-21.09507 l 8.33393,-0.75268 6.24946,-8.30358 c 7.87382,-10.46186 21.08562,-22.94818 29.66097,-28.03224 8.505,-5.04235 24.09485,-10.96048 35.42634,-13.44833 8.61063,-1.89047 8.90713,-2.06481 8.34511,-4.90667 -3.58208,-18.11314 -4.78289,-65.9432 -2.03049,-80.87731 2.50438,-13.58833 6.99855,-26.72913 15.67792,-45.84162 4.57988,-10.08516 8.96332,-20.31633 9.741,-22.73596 1.00987,-3.14204 1.95212,-4.26836 3.29709,-3.94111 1.03574,0.25201 15.91095,4.01925 33.05603,8.37167 17.14509,4.35241 31.37857,7.67307 31.62997,7.37923 0.25141,-0.29383 13.25737,-51.84821 28.90214,-114.56528 15.64477,-62.71707 29.00221,-114.97643 29.6832,-116.13191 1.93458,-3.28256 9.24193,-6.49443 14.77551,-6.49443 6.17267,0 11.79261,3.51688 14.65084,9.16832 l 2.02865,4.01115 -28.04486,114.03103 c -15.42468,62.71708 -28.15423,115.00354 -28.28789,116.19215 -0.2105,1.87186 3.89867,3.42335 30.70007,11.59141 l 30.94309,9.4303 0.31691,16.73044 c 0.25065,13.23289 -0.16816,19.1107 -2.0034,28.11633 -4.88948,23.99307 -16.25297,50.17475 -36.12331,83.22867 -6.05637,10.07463 -10.51745,18.48224 -9.91349,18.68356 0.60395,0.20132 3.45607,1.9279 6.33805,3.83683 13.83244,9.16224 23.61183,26.22518 29.43421,51.35648 4.83373,20.86396 4.22471,19.50582 7.16437,15.97682 1.37202,-1.64708 5.58889,-6.71048 9.37083,-11.252 12.58734,-15.11546 28.35908,-25.81422 42.33005,-28.71457 11.20183,-2.3255 24.12664,1.70116 34.67472,10.80272 9.42337,8.13111 19.71682,26.86279 23.93265,43.55185 0.96468,3.81884 2.0194,7.84585 2.34383,8.94892 0.56053,1.90581 -12.04155,2.00557 -253.34447,2.00557 l -253.93436,0 5.03779,-7.73577 z"
       id="path4225"
       inkscape:connector-curvature="0" />
    <path
       style="opacity:0;fill:#000000;fill-opacity:1;stroke:#000000;stroke-width:1.14604056;stroke-miterlimit:4;stroke-dasharray:none;stroke-opacity:1"
       d="m 115.73839,814.9149 c 2.77078,-4.25468 7.94686,-12.99652 11.50241,-19.4263 7.49073,-13.54614 15.65386,-23.013 25.14302,-29.15862 16.27495,-10.54042 43.91423,-17.56582 82.99211,-21.09507 l 8.33393,-0.75268 6.24946,-8.30358 c 7.87382,-10.46186 21.08562,-22.94818 29.66097,-28.03224 8.505,-5.04235 24.09485,-10.96048 35.42634,-13.44833 8.61063,-1.89047 8.90713,-2.06481 8.34511,-4.90667 -3.58208,-18.11314 -4.78289,-65.9432 -2.03049,-80.87731 2.50438,-13.58833 6.99855,-26.72913 15.67792,-45.84162 4.57988,-10.08516 8.96332,-20.31633 9.741,-22.73596 1.00987,-3.14204 1.95212,-4.26836 3.29709,-3.94111 1.03574,0.25201 15.91095,4.01925 33.05603,8.37167 17.14509,4.35241 31.37857,7.67307 31.62997,7.37923 0.25141,-0.29383 13.25737,-51.84821 28.90214,-114.56528 15.64477,-62.71707 29.00221,-114.97643 29.6832,-116.13191 1.93458,-3.28256 9.24193,-6.49443 14.77551,-6.49443 6.17267,0 11.79261,3.51688 14.65084,9.16832 l 2.02865,4.01115 -28.04486,114.03103 c -15.42468,62.71708 -28.15423,115.00354 -28.28789,116.19215 -0.2105,1.87186 3.89867,3.42335 30.70007,11.59141 l 30.94309,9.4303 0.31691,16.73044 c 0.25065,13.23289 -0.16816,19.1107 -2.0034,28.11633 -4.88948,23.99307 -16.25297,50.17475 -36.12331,83.22867 -6.05637,10.07463 -10.51745,18.48224 -9.91349,18.68356 0.60395,0.20132 3.45607,1.9279 6.33805,3.83683 13.83244,9.16224 23.61183,26.22518 29.43421,51.35648 4.83373,20.86396 4.22471,19.50582 7.16437,15.97682 1.37202,-1.64708 5.58889,-6.71048 9.37083,-11.252 12.58734,-15.11546 28.35908,-25.81422 42.33005,-28.71457 11.20183,-2.3255 24.12664,1.70116 34.67472,10.80272 9.42337,8.13111 19.71682,26.86279 23.93265,43.55185 0.96468,3.81884 2.0194,7.84585 2.34383,8.94892 0.56053,1.90581 -12.04155,2.00557 -253.34447,2.00557 l -253.93436,0 5.03779,-7.73577 z"
       id="path4227"
       inkscape:connector-curvature="0" />
    <path
       style="opacity:0;fill:#000000;fill-opacity:1;stroke:#000000;stroke-width:1.14604056;stroke-miterlimit:4;stroke-dasharray:none;stroke-opacity:1"
       d="m 115.73839,814.9149 c 2.77078,-4.25468 7.94686,-12.99652 11.50241,-19.4263 7.49073,-13.54614 15.65386,-23.013 25.14302,-29.15862 16.27495,-10.54042 43.91423,-17.56582 82.99211,-21.09507 l 8.33393,-0.75268 6.24946,-8.30358 c 7.87382,-10.46186 21.08562,-22.94818 29.66097,-28.03224 8.505,-5.04235 24.09485,-10.96048 35.42634,-13.44833 8.61063,-1.89047 8.90713,-2.06481 8.34511,-4.90667 -3.58208,-18.11314 -4.78289,-65.9432 -2.03049,-80.87731 2.50438,-13.58833 6.99855,-26.72913 15.67792,-45.84162 4.57988,-10.08516 8.96332,-20.31633 9.741,-22.73596 1.00987,-3.14204 1.95212,-4.26836 3.29709,-3.94111 1.03574,0.25201 15.91095,4.01925 33.05603,8.37167 17.14509,4.35241 31.37857,7.67307 31.62997,7.37923 0.25141,-0.29383 13.25737,-51.84821 28.90214,-114.56528 15.64477,-62.71707 29.00221,-114.97643 29.6832,-116.13191 1.93458,-3.28256 9.24193,-6.49443 14.77551,-6.49443 6.17267,0 11.79261,3.51688 14.65084,9.16832 l 2.02865,4.01115 -28.04486,114.03103 c -15.42468,62.71708 -28.15423,115.00354 -28.28789,116.19215 -0.2105,1.87186 3.89867,3.42335 30.70007,11.59141 l 30.94309,9.4303 0.31691,16.73044 c 0.25065,13.23289 -0.16816,19.1107 -2.0034,28.11633 -4.88948,23.99307 -16.25297,50.17475 -36.12331,83.22867 -6.05637,10.07463 -10.51745,18.48224 -9.91349,18.68356 0.60395,0.20132 3.45607,1.9279 6.33805,3.83683 13.83244,9.16224 23.61183,26.22518 29.43421,51.35648 4.83373,20.86396 4.22471,19.50582 7.16437,15.97682 1.37202,-1.64708 5.58889,-6.71048 9.37083,-11.252 12.58734,-15.11546 28.35908,-25.81422 42.33005,-28.71457 11.20183,-2.3255 24.12664,1.70116 34.67472,10.80272 9.42337,8.13111 19.71682,26.86279 23.93265,43.55185 0.96468,3.81884 2.0194,7.84585 2.34383,8.94892 0.56053,1.90581 -12.04155,2.00557 -253.34447,2.00557 l -253.93436,0 5.03779,-7.73577 z"
       id="path4229"
       inkscape:connector-curvature="0" />
    <path
       style="opacity:0;fill:#000000;fill-opacity:1;stroke:#000000;stroke-width:1.14604056;stroke-miterlimit:4;stroke-dasharray:none;stroke-opacity:1"
       d="m 115.73839,814.9149 c 2.77078,-4.25468 7.94686,-12.99652 11.50241,-19.4263 7.49073,-13.54614 15.65386,-23.013 25.14302,-29.15862 16.27495,-10.54042 43.91423,-17.56582 82.99211,-21.09507 l 8.33393,-0.75268 6.24946,-8.30358 c 7.87382,-10.46186 21.08562,-22.94818 29.66097,-28.03224 8.505,-5.04235 24.09485,-10.96048 35.42634,-13.44833 8.61063,-1.89047 8.90713,-2.06481 8.34511,-4.90667 -3.58208,-18.11314 -4.78289,-65.9432 -2.03049,-80.87731 2.50438,-13.58833 6.99855,-26.72913 15.67792,-45.84162 4.57988,-10.08516 8.96332,-20.31633 9.741,-22.73596 1.00987,-3.14204 1.95212,-4.26836 3.29709,-3.94111 1.03574,0.25201 15.91095,4.01925 33.05603,8.37167 17.14509,4.35241 31.37857,7.67307 31.62997,7.37923 0.25141,-0.29383 13.25737,-51.84821 28.90214,-114.56528 15.64477,-62.71707 29.00221,-114.97643 29.6832,-116.13191 1.93458,-3.28256 9.24193,-6.49443 14.77551,-6.49443 6.17267,0 11.79261,3.51688 14.65084,9.16832 l 2.02865,4.01115 -28.04486,114.03103 c -15.42468,62.71708 -28.15423,115.00354 -28.28789,116.19215 -0.2105,1.87186 3.89867,3.42335 30.70007,11.59141 l 30.94309,9.4303 0.31691,16.73044 c 0.25065,13.23289 -0.16816,19.1107 -2.0034,28.11633 -4.88948,23.99307 -16.25297,50.17475 -36.12331,83.22867 -6.05637,10.07463 -10.51745,18.48224 -9.91349,18.68356 0.60395,0.20132 3.45607,1.9279 6.33805,3.83683 13.83244,9.16224 23.61183,26.22518 29.43421,51.35648 4.83373,20.86396 4.22471,19.50582 7.16437,15.97682 1.37202,-1.64708 5.58889,-6.71048 9.37083,-11.252 12.58734,-15.11546 28.35908,-25.81422 42.33005,-28.71457 11.20183,-2.3255 24.12664,1.70116 34.67472,10.80272 9.42337,8.13111 19.71682,26.86279 23.93265,43.55185 0.96468,3.81884 2.0194,7.84585 2.34383,8.94892 0.56053,1.90581 -12.04155,2.00557 -253.34447,2.00557 l -253.93436,0 5.03779,-7.73577 z"
       id="path4231"
       inkscape:connector-curvature="0" />
    <path
       style="opacity:0;fill:#000000;fill-opacity:1;stroke:#000000;stroke-width:1.14604056;stroke-miterlimit:4;stroke-dasharray:none;stroke-opacity:1"
       d="m 115.73839,814.9149 c 2.77078,-4.25468 7.94686,-12.99652 11.50241,-19.4263 7.49073,-13.54614 15.65386,-23.013 25.14302,-29.15862 16.27495,-10.54042 43.91423,-17.56582 82.99211,-21.09507 l 8.33393,-0.75268 6.24946,-8.30358 c 7.87382,-10.46186 21.08562,-22.94818 29.66097,-28.03224 8.505,-5.04235 24.09485,-10.96048 35.42634,-13.44833 8.61063,-1.89047 8.90713,-2.06481 8.34511,-4.90667 -3.58208,-18.11314 -4.78289,-65.9432 -2.03049,-80.87731 2.50438,-13.58833 6.99855,-26.72913 15.67792,-45.84162 4.57988,-10.08516 8.96332,-20.31633 9.741,-22.73596 1.00987,-3.14204 1.95212,-4.26836 3.29709,-3.94111 1.03574,0.25201 15.91095,4.01925 33.05603,8.37167 17.14509,4.35241 31.37857,7.67307 31.62997,7.37923 0.25141,-0.29383 13.25737,-51.84821 28.90214,-114.56528 15.64477,-62.71707 29.00221,-114.97643 29.6832,-116.13191 1.93458,-3.28256 9.24193,-6.49443 14.77551,-6.49443 6.17267,0 11.79261,3.51688 14.65084,9.16832 l 2.02865,4.01115 -28.04486,114.03103 c -15.42468,62.71708 -28.15423,115.00354 -28.28789,116.19215 -0.2105,1.87186 3.89867,3.42335 30.70007,11.59141 l 30.94309,9.4303 0.31691,16.73044 c 0.25065,13.23289 -0.16816,19.1107 -2.0034,28.11633 -4.88948,23.99307 -16.25297,50.17475 -36.12331,83.22867 -6.05637,10.07463 -10.51745,18.48224 -9.91349,18.68356 0.60395,0.20132 3.45607,1.9279 6.33805,3.83683 13.83244,9.16224 23.61183,26.22518 29.43421,51.35648 4.83373,20.86396 4.22471,19.50582 7.16437,15.97682 1.37202,-1.64708 5.58889,-6.71048 9.37083,-11.252 12.58734,-15.11546 28.35908,-25.81422 42.33005,-28.71457 11.20183,-2.3255 24.12664,1.70116 34.67472,10.80272 9.42337,8.13111 19.71682,26.86279 23.93265,43.55185 0.96468,3.81884 2.0194,7.84585 2.34383,8.94892 0.56053,1.90581 -12.04155,2.00557 -253.34447,2.00557 l -253.93436,0 5.03779,-7.73577 z"
       id="path4233"
       inkscape:connector-curvature="0" />
    <path
       style="opacity:0;fill:#000000;fill-opacity:1;stroke:#000000;stroke-width:1.14604056;stroke-miterlimit:4;stroke-dasharray:none;stroke-opacity:1"
       d="m 115.73839,814.9149 c 2.77078,-4.25468 7.94686,-12.99652 11.50241,-19.4263 7.49073,-13.54614 15.65386,-23.013 25.14302,-29.15862 16.27495,-10.54042 43.91423,-17.56582 82.99211,-21.09507 l 8.33393,-0.75268 6.24946,-8.30358 c 7.87382,-10.46186 21.08562,-22.94818 29.66097,-28.03224 8.505,-5.04235 24.09485,-10.96048 35.42634,-13.44833 8.61063,-1.89047 8.90713,-2.06481 8.34511,-4.90667 -3.58208,-18.11314 -4.78289,-65.9432 -2.03049,-80.87731 2.50438,-13.58833 6.99855,-26.72913 15.67792,-45.84162 4.57988,-10.08516 8.96332,-20.31633 9.741,-22.73596 1.00987,-3.14204 1.95212,-4.26836 3.29709,-3.94111 1.03574,0.25201 15.91095,4.01925 33.05603,8.37167 17.14509,4.35241 31.37857,7.67307 31.62997,7.37923 0.25141,-0.29383 13.25737,-51.84821 28.90214,-114.56528 15.64477,-62.71707 29.00221,-114.97643 29.6832,-116.13191 1.93458,-3.28256 9.24193,-6.49443 14.77551,-6.49443 6.17267,0 11.79261,3.51688 14.65084,9.16832 l 2.02865,4.01115 -28.04486,114.03103 c -15.42468,62.71708 -28.15423,115.00354 -28.28789,116.19215 -0.2105,1.87186 3.89867,3.42335 30.70007,11.59141 l 30.94309,9.4303 0.31691,16.73044 c 0.25065,13.23289 -0.16816,19.1107 -2.0034,28.11633 -4.88948,23.99307 -16.25297,50.17475 -36.12331,83.22867 -6.05637,10.07463 -10.51745,18.48224 -9.91349,18.68356 0.60395,0.20132 3.45607,1.9279 6.33805,3.83683 13.83244,9.16224 23.61183,26.22518 29.43421,51.35648 4.83373,20.86396 4.22471,19.50582 7.16437,15.97682 1.37202,-1.64708 5.58889,-6.71048 9.37083,-11.252 12.58734,-15.11546 28.35908,-25.81422 42.33005,-28.71457 11.20183,-2.3255 24.12664,1.70116 34.67472,10.80272 9.42337,8.13111 19.71682,26.86279 23.93265,43.55185 0.96468,3.81884 2.0194,7.84585 2.34383,8.94892 0.56053,1.90581 -12.04155,2.00557 -253.34447,2.00557 l -253.93436,0 5.03779,-7.73577 z"
       id="path4235"
       inkscape:connector-curvature="0" />
    <path
       style="opacity:0;fill:#000000;fill-opacity:1;stroke:#000000;stroke-width:1.14604056;stroke-miterlimit:4;stroke-dasharray:none;stroke-opacity:1"
       d="m 115.73839,814.9149 c 2.77078,-4.25468 7.94686,-12.99652 11.50241,-19.4263 7.49073,-13.54614 15.65386,-23.013 25.14302,-29.15862 16.27495,-10.54042 43.91423,-17.56582 82.99211,-21.09507 l 8.33393,-0.75268 6.24946,-8.30358 c 7.87382,-10.46186 21.08562,-22.94818 29.66097,-28.03224 8.505,-5.04235 24.09485,-10.96048 35.42634,-13.44833 8.61063,-1.89047 8.90713,-2.06481 8.34511,-4.90667 -3.58208,-18.11314 -4.78289,-65.9432 -2.03049,-80.87731 2.50438,-13.58833 6.99855,-26.72913 15.67792,-45.84162 4.57988,-10.08516 8.96332,-20.31633 9.741,-22.73596 1.00987,-3.14204 1.95212,-4.26836 3.29709,-3.94111 1.03574,0.25201 15.91095,4.01925 33.05603,8.37167 17.14509,4.35241 31.37857,7.67307 31.62997,7.37923 0.25141,-0.29383 13.25737,-51.84821 28.90214,-114.56528 15.64477,-62.71707 29.00221,-114.97643 29.6832,-116.13191 1.93458,-3.28256 9.24193,-6.49443 14.77551,-6.49443 6.17267,0 11.79261,3.51688 14.65084,9.16832 l 2.02865,4.01115 -28.04486,114.03103 c -15.42468,62.71708 -28.15423,115.00354 -28.28789,116.19215 -0.2105,1.87186 3.89867,3.42335 30.70007,11.59141 l 30.94309,9.4303 0.31691,16.73044 c 0.25065,13.23289 -0.16816,19.1107 -2.0034,28.11633 -4.88948,23.99307 -16.25297,50.17475 -36.12331,83.22867 -6.05637,10.07463 -10.51745,18.48224 -9.91349,18.68356 0.60395,0.20132 3.45607,1.9279 6.33805,3.83683 13.83244,9.16224 23.61183,26.22518 29.43421,51.35648 4.83373,20.86396 4.22471,19.50582 7.16437,15.97682 1.37202,-1.64708 5.58889,-6.71048 9.37083,-11.252 12.58734,-15.11546 28.35908,-25.81422 42.33005,-28.71457 11.20183,-2.3255 24.12664,1.70116 34.67472,10.80272 9.42337,8.13111 19.71682,26.86279 23.93265,43.55185 0.96468,3.81884 2.0194,7.84585 2.34383,8.94892 0.56053,1.90581 -12.04155,2.00557 -253.34447,2.00557 l -253.93436,0 5.03779,-7.73577 z"
       id="path4237"
       inkscape:connector-curvature="0" />
    <path
       style="opacity:0;fill:#000000;fill-opacity:1;stroke:#000000;stroke-width:1.14604056;stroke-miterlimit:4;stroke-dasharray:none;stroke-opacity:1"
       d="m 115.73839,814.9149 c 2.77078,-4.25468 7.94686,-12.99652 11.50241,-19.4263 7.49073,-13.54614 15.65386,-23.013 25.14302,-29.15862 16.27495,-10.54042 43.91423,-17.56582 82.99211,-21.09507 l 8.33393,-0.75268 6.24946,-8.30358 c 7.87382,-10.46186 21.08562,-22.94818 29.66097,-28.03224 8.505,-5.04235 24.09485,-10.96048 35.42634,-13.44833 8.61063,-1.89047 8.90713,-2.06481 8.34511,-4.90667 -3.58208,-18.11314 -4.78289,-65.9432 -2.03049,-80.87731 2.50438,-13.58833 6.99855,-26.72913 15.67792,-45.84162 4.57988,-10.08516 8.96332,-20.31633 9.741,-22.73596 1.00987,-3.14204 1.95212,-4.26836 3.29709,-3.94111 1.03574,0.25201 15.91095,4.01925 33.05603,8.37167 17.14509,4.35241 31.37857,7.67307 31.62997,7.37923 0.25141,-0.29383 13.25737,-51.84821 28.90214,-114.56528 15.64477,-62.71707 29.00221,-114.97643 29.6832,-116.13191 1.93458,-3.28256 9.24193,-6.49443 14.77551,-6.49443 6.17267,0 11.79261,3.51688 14.65084,9.16832 l 2.02865,4.01115 -28.04486,114.03103 c -15.42468,62.71708 -28.15423,115.00354 -28.28789,116.19215 -0.2105,1.87186 3.89867,3.42335 30.70007,11.59141 l 30.94309,9.4303 0.31691,16.73044 c 0.25065,13.23289 -0.16816,19.1107 -2.0034,28.11633 -4.88948,23.99307 -16.25297,50.17475 -36.12331,83.22867 -6.05637,10.07463 -10.51745,18.48224 -9.91349,18.68356 0.60395,0.20132 3.45607,1.9279 6.33805,3.83683 13.83244,9.16224 23.61183,26.22518 29.43421,51.35648 4.83373,20.86396 4.22471,19.50582 7.16437,15.97682 1.37202,-1.64708 5.58889,-6.71048 9.37083,-11.252 12.58734,-15.11546 28.35908,-25.81422 42.33005,-28.71457 11.20183,-2.3255 24.12664,1.70116 34.67472,10.80272 9.42337,8.13111 19.71682,26.86279 23.93265,43.55185 0.96468,3.81884 2.0194,7.84585 2.34383,8.94892 0.56053,1.90581 -12.04155,2.00557 -253.34447,2.00557 l -253.93436,0 5.03779,-7.73577 z"
       id="path4239"
       inkscape:connector-curvature="0" />
    <path
       style="opacity:0;fill:#000000;fill-opacity:1;stroke:#000000;stroke-width:1.14604056;stroke-miterlimit:4;stroke-dasharray:none;stroke-opacity:1"
       d="m 115.73839,814.9149 c 2.77078,-4.25468 7.94686,-12.99652 11.50241,-19.4263 7.49073,-13.54614 15.65386,-23.013 25.14302,-29.15862 16.27495,-10.54042 43.91423,-17.56582 82.99211,-21.09507 l 8.33393,-0.75268 6.24946,-8.30358 c 7.87382,-10.46186 21.08562,-22.94818 29.66097,-28.03224 8.505,-5.04235 24.09485,-10.96048 35.42634,-13.44833 8.61063,-1.89047 8.90713,-2.06481 8.34511,-4.90667 -3.58208,-18.11314 -4.78289,-65.9432 -2.03049,-80.87731 2.50438,-13.58833 6.99855,-26.72913 15.67792,-45.84162 4.57988,-10.08516 8.96332,-20.31633 9.741,-22.73596 1.00987,-3.14204 1.95212,-4.26836 3.29709,-3.94111 1.03574,0.25201 15.91095,4.01925 33.05603,8.37167 17.14509,4.35241 31.37857,7.67307 31.62997,7.37923 0.25141,-0.29383 13.25737,-51.84821 28.90214,-114.56528 15.64477,-62.71707 29.00221,-114.97643 29.6832,-116.13191 1.93458,-3.28256 9.24193,-6.49443 14.77551,-6.49443 6.17267,0 11.79261,3.51688 14.65084,9.16832 l 2.02865,4.01115 -28.04486,114.03103 c -15.42468,62.71708 -28.15423,115.00354 -28.28789,116.19215 -0.2105,1.87186 3.89867,3.42335 30.70007,11.59141 l 30.94309,9.4303 0.31691,16.73044 c 0.25065,13.23289 -0.16816,19.1107 -2.0034,28.11633 -4.88948,23.99307 -16.25297,50.17475 -36.12331,83.22867 -6.05637,10.07463 -10.51745,18.48224 -9.91349,18.68356 0.60395,0.20132 3.45607,1.9279 6.33805,3.83683 13.83244,9.16224 23.61183,26.22518 29.43421,51.35648 4.83373,20.86396 4.22471,19.50582 7.16437,15.97682 1.37202,-1.64708 5.58889,-6.71048 9.37083,-11.252 12.58734,-15.11546 28.35908,-25.81422 42.33005,-28.71457 11.20183,-2.3255 24.12664,1.70116 34.67472,10.80272 9.42337,8.13111 19.71682,26.86279 23.93265,43.55185 0.96468,3.81884 2.0194,7.84585 2.34383,8.94892 0.56053,1.90581 -12.04155,2.00557 -253.34447,2.00557 l -253.93436,0 5.03779,-7.73577 z"
       id="path4241"
       inkscape:connector-curvature="0" />
    <path
       style="opacity:0;fill:#000000;fill-opacity:1;stroke:#000000;stroke-width:1.146;stroke-miterlimit:4;stroke-dasharray:none;stroke-opacity:1"
       d="m 115.73839,814.9149 c 2.77078,-4.25468 7.94686,-12.99652 11.50241,-19.4263 7.49073,-13.54614 15.65386,-23.013 25.14302,-29.15862 16.27495,-10.54042 43.91423,-17.56582 82.99211,-21.09507 l 8.33393,-0.75268 6.24946,-8.30358 c 7.87382,-10.46186 21.08562,-22.94818 29.66097,-28.03224 8.505,-5.04235 24.09485,-10.96048 35.42634,-13.44833 8.61063,-1.89047 8.90713,-2.06481 8.34511,-4.90667 -3.58208,-18.11314 -4.78289,-65.9432 -2.03049,-80.87731 2.50438,-13.58833 6.99855,-26.72913 15.67792,-45.84162 4.57988,-10.08516 8.96332,-20.31633 9.741,-22.73596 1.00987,-3.14204 1.95212,-4.26836 3.29709,-3.94111 1.03574,0.25201 15.91095,4.01925 33.05603,8.37167 17.14509,4.35241 31.37857,7.67307 31.62997,7.37923 0.25141,-0.29383 13.25737,-51.84821 28.90214,-114.56528 15.64477,-62.71707 29.00221,-114.97643 29.6832,-116.13191 1.93458,-3.28256 9.24193,-6.49443 14.77551,-6.49443 6.17267,0 11.79261,3.51688 14.65084,9.16832 l 2.02865,4.01115 -28.04486,114.03103 c -15.42468,62.71708 -28.15423,115.00354 -28.28789,116.19215 -0.2105,1.87186 3.89867,3.42335 30.70007,11.59141 l 30.94309,9.4303 0.31691,16.73044 c 0.25065,13.23289 -0.16816,19.1107 -2.0034,28.11633 -4.88948,23.99307 -16.25297,50.17475 -36.12331,83.22867 -6.05637,10.07463 -10.51745,18.48224 -9.91349,18.68356 0.60395,0.20132 3.45607,1.9279 6.33805,3.83683 13.83244,9.16224 23.61183,26.22518 29.43421,51.35648 4.83373,20.86396 4.22471,19.50582 7.16437,15.97682 1.37202,-1.64708 5.58889,-6.71048 9.37083,-11.252 12.58734,-15.11546 28.35908,-25.81422 42.33005,-28.71457 11.20183,-2.3255 24.12664,1.70116 34.67472,10.80272 9.42337,8.13111 19.71682,26.86279 23.93265,43.55185 0.96468,3.81884 2.0194,7.84585 2.34383,8.94892 0.56053,1.90581 -12.04155,2.00557 -253.34447,2.00557 l -253.93436,0 5.03779,-7.73577 z"
       id="path4243"
       inkscape:connector-curvature="0" />
    <path
       style="opacity:0;fill:#000000;fill-opacity:1;stroke:#000000;stroke-width:1.3133626;stroke-miterlimit:4;stroke-dasharray:none;stroke-opacity:1"
       d="m 115.73839,814.9149 c 2.77078,-4.25468 7.94686,-12.99652 11.50241,-19.4263 7.49073,-13.54614 15.65386,-23.013 25.14302,-29.15862 16.27495,-10.54042 43.91423,-17.56582 82.99211,-21.09507 l 8.33393,-0.75268 6.24946,-8.30358 c 7.87382,-10.46186 21.08562,-22.94818 29.66097,-28.03224 8.505,-5.04235 24.09485,-10.96048 35.42634,-13.44833 8.61063,-1.89047 8.90713,-2.06481 8.34511,-4.90667 -3.58208,-18.11314 -4.78289,-65.9432 -2.03049,-80.87731 2.50438,-13.58833 6.99855,-26.72913 15.67792,-45.84162 4.57988,-10.08516 8.96332,-20.31633 9.741,-22.73596 1.00987,-3.14204 1.95212,-4.26836 3.29709,-3.94111 1.03574,0.25201 15.91095,4.01925 33.05603,8.37167 17.14509,4.35241 31.37857,7.67307 31.62997,7.37923 0.25141,-0.29383 13.25737,-51.84821 28.90214,-114.56528 15.64477,-62.71707 29.00221,-114.97643 29.6832,-116.13191 1.93458,-3.28256 9.24193,-6.49443 14.77551,-6.49443 6.17267,0 11.79261,3.51688 14.65084,9.16832 l 2.02865,4.01115 -28.04486,114.03103 c -15.42468,62.71708 -28.15423,115.00354 -28.28789,116.19215 -0.2105,1.87186 3.89867,3.42335 30.70007,11.59141 l 30.94309,9.4303 0.31691,16.73044 c 0.25065,13.23289 -0.16816,19.1107 -2.0034,28.11633 -4.88948,23.99307 -16.25297,50.17475 -36.12331,83.22867 -6.05637,10.07463 -10.51745,18.48224 -9.91349,18.68356 0.60395,0.20132 3.45607,1.9279 6.33805,3.83683 13.83244,9.16224 23.61183,26.22518 29.43421,51.35648 4.83373,20.86396 4.22471,19.50582 7.16437,15.97682 1.37202,-1.64708 5.58889,-6.71048 9.37083,-11.252 12.58734,-15.11546 28.35908,-25.81422 42.33005,-28.71457 11.20183,-2.3255 24.12664,1.70116 34.67472,10.80272 9.42337,8.13111 19.71682,26.86279 23.93265,43.55185 0.96468,3.81884 2.0194,7.84585 2.34383,8.94892 0.56053,1.90581 -12.04155,2.00557 -253.34447,2.00557 l -253.93436,0 5.03779,-7.73577 z"
       id="path4245"
       inkscape:connector-curvature="0" />
  </g>
</svg>
