<?xml version="1.0" encoding="UTF-8" standalone="no"?>
<!-- Created with Inkscape (http://www.inkscape.org/) -->

<svg
   xmlns:dc="http://purl.org/dc/elements/1.1/"
   xmlns:cc="http://creativecommons.org/ns#"
   xmlns:rdf="http://www.w3.org/1999/02/22-rdf-syntax-ns#"
   xmlns:svg="http://www.w3.org/2000/svg"
   xmlns="http://www.w3.org/2000/svg"
   xmlns:sodipodi="http://sodipodi.sourceforge.net/DTD/sodipodi-0.dtd"
   xmlns:inkscape="http://www.inkscape.org/namespaces/inkscape"
   width="210mm"
   height="297mm"
   viewBox="0 0 744.09448819 1052.3622047"
   id="svg2"
   version="1.1"
   inkscape:version="0.91 r13725"
   sodipodi:docname="water.svg">
  <defs
     id="defs4" />
  <sodipodi:namedview
     id="base"
     pagecolor="#ffffff"
     bordercolor="#666666"
     borderopacity="1.0"
     inkscape:pageopacity="0.0"
     inkscape:pageshadow="2"
     inkscape:zoom="1.7451389"
     inkscape:cx="255.87348"
     inkscape:cy="567.91066"
     inkscape:document-units="px"
     inkscape:current-layer="layer1"
     showgrid="false"
     inkscape:window-width="1920"
     inkscape:window-height="1033"
     inkscape:window-x="-4"
     inkscape:window-y="-4"
     inkscape:window-maximized="1" />
  <metadata
     id="metadata7">
    <rdf:RDF>
      <cc:Work
         rdf:about="">
        <dc:format>image/svg+xml</dc:format>
        <dc:type
           rdf:resource="http://purl.org/dc/dcmitype/StillImage" />
        <dc:title></dc:title>
      </cc:Work>
    </rdf:RDF>
  </metadata>
  <g
     inkscape:label="Vrstva 1"
     inkscape:groupmode="layer"
     id="layer1">
    <path
       style="fill:none;fill-rule:evenodd;stroke:#000000;stroke-width:1px;stroke-linecap:butt;stroke-linejoin:miter;stroke-opacity:1"
       d="m 99.697056,304.85338 c 26.885694,1.69015 28.110734,19.43153 72.200554,30.9431 45.24468,-17.33377 39.92481,-25.7947 69.33546,-30.9431 27.11726,4.25988 56.34789,32.03982 76.2117,29.22404 28.75113,0.29112 46.12275,-26.84184 72.20055,-30.9431 26.012,4.0956 44.63117,29.57863 73.91962,33.23518 19.16646,2.39286 47.15819,-33.91329 70.4815,-32.66216 l 1.14604,32.66216 c -31.25258,1.58932 -42.83813,25.60786 -70.4815,31.51611 -43.88376,-11.54505 -49.23574,-30.09024 -75.63867,-32.08913 -39.30712,7.08739 -39.18091,25.00962 -71.05452,32.08913 -28.48354,-1.7243 -47.19321,-30.63775 -76.78472,-31.51611 -30.60147,10.50537 -43.98653,31.32511 -67.61639,31.51611 C 125.6,350.89548 119.16383,334.14659 99.697056,335.79648 Z"
       id="path4262"
       inkscape:connector-curvature="0"
       sodipodi:nodetypes="cccccsccccccccc" />
    <path
       style="fill:none;fill-rule:evenodd;stroke:#000000;stroke-width:1px;stroke-linecap:butt;stroke-linejoin:miter;stroke-opacity:1"
       d="m 100.8431,378.19998 c 26.88569,1.69015 28.11073,19.43153 72.20055,30.9431 45.24468,-17.33377 39.92481,-25.7947 69.33546,-30.9431 27.11726,4.25988 56.34789,32.03982 76.2117,29.22404 28.75113,0.29112 46.12275,-26.84184 72.20055,-30.9431 26.012,4.0956 44.63117,29.57863 73.91962,33.23518 19.16646,2.39286 47.15819,-33.91329 70.4815,-32.66216 l 1.14604,32.66216 c -31.25258,1.58932 -42.83813,25.60786 -70.4815,31.51611 -43.88376,-11.54505 -49.23574,-30.09024 -75.63867,-32.08913 -39.30712,7.08739 -39.18091,25.00962 -71.05452,32.08913 -28.48354,-1.7243 -47.19321,-30.63775 -76.78472,-31.51611 -30.60147,10.50537 -43.98653,31.32511 -67.61639,31.51611 -48.01668,-16.99013 -54.45285,-33.73902 -73.91962,-32.08913 z"
       id="path4262-5"
       inkscape:connector-curvature="0"
       sodipodi:nodetypes="cccccsccccccccc" />
    <path
       style="fill:none;fill-rule:evenodd;stroke:#000000;stroke-width:1px;stroke-linecap:butt;stroke-linejoin:miter;stroke-opacity:1"
       d="m 104.85424,460.14189 c 26.88569,1.69015 28.11073,19.43153 72.20055,30.9431 45.24468,-17.33377 39.92481,-25.7947 69.33546,-30.9431 27.11726,4.25988 56.34789,32.03982 76.2117,29.22404 28.75113,0.29112 46.12275,-26.84184 72.20055,-30.9431 26.012,4.0956 44.63117,29.57863 73.91962,33.23518 19.16646,2.39286 47.15819,-33.91329 70.4815,-32.66216 l 1.14604,32.66216 c -31.25258,1.58932 -42.83813,25.60786 -70.4815,31.51611 -43.88376,-11.54505 -49.23574,-30.09024 -75.63867,-32.08913 -39.30712,7.08739 -39.18091,25.00962 -71.05452,32.08913 -28.48354,-1.7243 -47.19321,-30.63775 -76.78472,-31.51611 -30.60147,10.50537 -43.98653,31.32511 -67.61639,31.51611 -48.01668,-16.99013 -54.45285,-33.73902 -73.91962,-32.08913 z"
       id="path4262-3"
       inkscape:connector-curvature="0"
       sodipodi:nodetypes="cccccsccccccccc" />
  </g>
</svg>
